<svg id="Capa_1" data-name="Capa 1" xmlns="http://www.w3.org/2000/svg" viewBox="0 0 548.61 557.45"><defs><style>.cls-1{fill:#3e519f;}.cls-2{fill:#fff;}.cls-3{fill:none;stroke:#fff;stroke-miterlimit:10;stroke-width:3px;}</style></defs><path class="cls-1" d="M130.08,323.48c-4.69.06-6.49-6.36-7.27-10a173,173,0,0,1-3-21.12,229.46,229.46,0,0,1,.53-43.3c3-29,10.84-57.31,20.63-84.68,4.77-13.36,10-26.59,15.65-39.59,5.26-12,11.13-23.92,18.84-34.6a96.62,96.62,0,0,1,29.15-26.52,203.2,203.2,0,0,1,38-17.11c26.22-9,54.84-13.58,82.31-8q5,1,9.91,2.47c3.1.9,4.42-3.92,1.33-4.83-28.05-8.22-58-5.6-85.77,2.61A233.31,233.31,0,0,0,210,55c-12.55,6.47-24.1,14.68-33.28,25.5-8.69,10.25-15.33,22-21,34.15-6.13,13.1-11.5,26.6-16.57,40.14C128.59,183,120,212.05,116.14,242a237.66,237.66,0,0,0-1.78,44.61,208.38,208.38,0,0,0,2.5,22.13c1,5.75,1.89,12.21,6.07,16.64a9.56,9.56,0,0,0,7.15,3.12c3.22,0,3.22-5,0-5Z" transform="translate(-29.96 -31.19)"/><path class="cls-1" d="M342.3,42.56a138.39,138.39,0,0,1,61.76,22.25c17.77,11.76,32.38,27.78,43.81,45.69,11.92,18.68,20.43,39.26,26.67,60.47,7,23.75,11.23,48.2,14.92,72.65q5.76,38.08,10.39,76.34l1.17,9.72a2.57,2.57,0,0,0,2.5,2.5,2.52,2.52,0,0,0,2.5-2.5q-4.66-39.36-10.43-78.6c-3.65-24.86-7.59-49.75-14.14-74-6-22.24-14.24-44-26-63.82-11.09-18.66-25.3-35.51-42.77-48.48a142.36,142.36,0,0,0-61.85-26.06q-4.23-.68-8.49-1.12a2.52,2.52,0,0,0-2.5,2.5,2.55,2.55,0,0,0,2.5,2.5Z" transform="translate(-29.96 -31.19)"/><path class="cls-1" d="M501.45,334c6,6.16,6,15.4,5.49,23.42-.32,4.93-.91,9.84-1.23,14.77q-.56,8.44-.49,16.92A239.14,239.14,0,0,0,508,423.06c1.49,9.79,3.3,19.79,6.89,29.06,3.22,8.35,8,16.17,15.61,21.22,7.09,4.74,15.66,6.33,23.52,9.31a30.29,30.29,0,0,1,9.92,5.69,24,24,0,0,1,6.52,11.3A84.5,84.5,0,0,1,573,514a97.11,97.11,0,0,1,.5,15.72c-.54,9.59-3.05,19.17-8.71,27-4.81,6.72-11.92,12.11-20.06,13.94a26.43,26.43,0,0,1-5.81.61c-3.22,0-3.22,5,0,5,9.14,0,17.71-4.07,24.31-10.25a48.17,48.17,0,0,0,13.72-24.89c2.38-10.63,1.91-21.6.41-32.31-1.36-9.65-3.74-19.51-11.85-25.74-6.88-5.27-15.65-7-23.64-9.85A35.9,35.9,0,0,1,531,467.53a35.12,35.12,0,0,1-8.14-10c-4.61-8.2-6.73-17.58-8.49-26.74a229.52,229.52,0,0,1-3.94-34.39,256.3,256.3,0,0,1,1.13-33.82c.83-8.84,1.52-18.45-2.61-26.63a22.35,22.35,0,0,0-3.92-5.44c-2.24-2.32-5.78,1.22-3.54,3.53Z" transform="translate(-29.96 -31.19)"/><path class="cls-1" d="M535.59,574.93a20.87,20.87,0,0,1-12.8,6.88,19.81,19.81,0,0,1-6.95-.28c-3-.68-5.7-1.94-8.76-2.14-5.22-.36-10.14,1.93-15,3.34a16.46,16.46,0,0,1-6.48.87c-2.38-.3-4.13-1.87-6-3.22a9.48,9.48,0,0,0-8.18-1.66c-3.08.8-5.92,2.35-9.09,2.84-3.94.6-9.47-1.66-7.12-6.48,1.26-2.59,3.49-4.63,5.35-6.79q3-3.56,5.83-7.33a74.85,74.85,0,0,0,9.33-15.83,32.36,32.36,0,0,0,1.62-20.21c-1.66-6.75-5.12-12.91-8.55-18.89-1.59-2.79-5.92-.28-4.31,2.52,3.11,5.44,6.27,11,7.88,17.07A27.52,27.52,0,0,1,471.15,543c-2.26,5.84-6,11.2-9.7,16.19-1.89,2.52-3.91,5-6,7.3s-4.06,4.54-5.19,7.39c-2.29,5.8,1.8,11.41,7.61,12.54a18.54,18.54,0,0,0,9.27-.94c1.45-.47,2.86-1,4.3-1.53a5.39,5.39,0,0,1,3.67-.39,14.75,14.75,0,0,1,3.3,2.18,15.52,15.52,0,0,0,3.76,2.13,15,15,0,0,0,7.77.5c5-.81,9.5-3.35,14.5-3.91,3.35-.39,6.19.88,9.37,1.72a24.17,24.17,0,0,0,9.12.62,25.73,25.73,0,0,0,16.22-8.32,2.57,2.57,0,0,0,0-3.54,2.53,2.53,0,0,0-3.54,0Z" transform="translate(-29.96 -31.19)"/><path class="cls-1" d="M460.41,504.52c-5.46,3.9-12.07,8.73-19.13,6.39a7.47,7.47,0,0,1-5.27-5.67,22.74,22.74,0,0,1,0-5.77,25.89,25.89,0,0,0-.24-6.28,2.52,2.52,0,0,0-2.41-1.84c-4.08-.19-7.56,2-11,3.93a54.84,54.84,0,0,1-10.33,4.59,57.18,57.18,0,0,1-22.76,2.54,2.52,2.52,0,0,0-2.5,2.5,2.55,2.55,0,0,0,2.5,2.5A60.83,60.83,0,0,0,412.56,505a61.75,61.75,0,0,0,10.83-4.51c3.12-1.66,6.27-4.26,10-4.09L431,494.52c.79,4.41-.92,8.91.55,13.28a12.78,12.78,0,0,0,8.12,7.82c8.51,3.06,16.62-2,23.31-6.78a2.56,2.56,0,0,0,.89-3.42,2.53,2.53,0,0,0-3.42-.9Z" transform="translate(-29.96 -31.19)"/><path class="cls-1" d="M130,321.72c-6.86-2.58-14.56-.87-20.48,3.2A30.76,30.76,0,0,0,97,343.19c-2.19,9.21-.79,18.83,1.82,27.8a185,185,0,0,0,10.44,26.69q1.53,3.26,3.17,6.47a34.22,34.22,0,0,1,2.7,6.21c1.21,4.32-.37,8.53-2.28,12.39-4.43,8.94-9.21,17.72-13.83,26.57-1.91,3.68-3.62,7.64-7.5,9.61-3.49,1.77-7.61,2.35-11.32,3.59a89.14,89.14,0,0,0-20.72,9.92c-12.59,8.25-23.35,20.32-27.57,35a51.69,51.69,0,0,0,4.83,39.35,41.43,41.43,0,0,0,13.46,14.3,52.7,52.7,0,0,0,10.06,4.56,13.93,13.93,0,0,1,5,2.85c1.47,1.41,2.6,3.11,3.93,4.64,5.6,6.47,14.35,7,22.32,6.84q15.25-.3,30.5-.65c4.82-.1,9.65-.12,14.46-.33,4-.16,8-.64,11.55-2.46a13.58,13.58,0,0,0,7-8.76,20.31,20.31,0,0,0-1.08-11.35c-2.85-8-8.28-14.8-11-22.88-2.55-7.59-3.05-16.06.8-23.32a19.49,19.49,0,0,1,6.94-7.61l-3.67-1.5c1.61,6.33,9.51,7.39,14.56,4.7,6.74-3.57,7.13-12.61,7.07-19.26l-3.76,2.16a129.4,129.4,0,0,0,39.78,13.36,2.58,2.58,0,0,0,3.07-1.75,2.52,2.52,0,0,0-1.74-3.08,125.39,125.39,0,0,1-38.59-12.85,2.53,2.53,0,0,0-3.76,2.16,37.81,37.81,0,0,1-.57,8.5c-.5,2.2-1.6,4.87-3.31,6a6,6,0,0,1-2.47,1,3.69,3.69,0,0,1-1.13.14c-.28,0-.55,0-.83,0-.11,0-.61-.06-.28,0a4.3,4.3,0,0,1-2.27-.86c.26.19-.68-.78-.49-.51a2.08,2.08,0,0,1-.46-1.07,2.52,2.52,0,0,0-3.67-1.49c-6.56,4.05-10.7,11.2-11.84,18.74-1.35,8.85,1.08,17.63,5,25.52,1.8,3.6,4,7,5.77,10.61,1.59,3.19,3.12,6.72,3.29,10.32a8.78,8.78,0,0,1-3.68,8c-2.88,1.92-6.51,2.31-9.89,2.48-9.56.46-19.17.43-28.74.64L93.09,575a53.82,53.82,0,0,1-11.63-.5,15.11,15.11,0,0,1-9.21-5.3,41.61,41.61,0,0,0-3.82-4.46,18.86,18.86,0,0,0-5.71-3.39c-3.2-1.31-6.4-2.3-9.37-4.1a33.55,33.55,0,0,1-7-5.72c-8.61-9.12-12.24-22.3-11.16-34.62,1.23-13.93,9.52-26.28,20.05-35.12a78.42,78.42,0,0,1,18.57-11.43A84,84,0,0,1,84,466.54c3.91-1.18,8.19-1.89,11.61-4.25,3.71-2.56,5.65-6.56,7.68-10.45L110,439c2.24-4.3,4.52-8.59,6.72-12.92,2.06-4,4-8.45,3.83-13.09s-2.55-8.78-4.59-12.88-4-8.41-5.86-12.7c-3.55-8.41-6.89-17.11-8.47-26.13-1.39-7.92-1.22-16.8,3-23.91,3.28-5.59,8.77-10.16,15.18-11.56a15.79,15.79,0,0,1,9,.73,2.52,2.52,0,0,0,3.07-1.75,2.56,2.56,0,0,0-1.75-3.08Z" transform="translate(-29.96 -31.19)"/><path class="cls-1" d="M205.15,502.27c21.64,11.43,45.82,16.21,69.69,20.55,6.42,1.16,12.9,2.47,19.45,2.65a65.45,65.45,0,0,0,18.9-2.71c6.09-1.65,12.07-3.62,18.18-5.19s12.5-3,18.82-4.13c14.33-2.66,28.81-4.39,43.28-6.12a2.58,2.58,0,0,0,2.5-2.5,2.51,2.51,0,0,0-2.5-2.5c-12.84,1.53-25.69,3.07-38.44,5.21a309.43,309.43,0,0,0-37.32,8.72c-5.87,1.76-11.83,3.53-17.95,4.06-6.31.55-12.57-.34-18.77-1.44-11.87-2.12-23.76-4.27-35.47-7.16-13.06-3.23-25.92-7.46-37.85-13.75-2.84-1.51-5.37,2.81-2.52,4.31Z" transform="translate(-29.96 -31.19)"/><path class="cls-1" d="M103.12,344.45c3.22,0,3.22-5,0-5s-3.22,5,0,5Z" transform="translate(-29.96 -31.19)"/><path class="cls-1" d="M104.79,340.42l-1.85-1.73-1.1,4.18c4.73-1.65,10.14-3.74,15.21-2.57,3.56.82,6.84,3.15,7.5,6.91a2.51,2.51,0,0,0,3.07,1.75,2.56,2.56,0,0,0,1.75-3.08c-.91-5.16-5.47-8.85-10.31-10.23-6.21-1.76-12.69.35-18.55,2.4a2.52,2.52,0,0,0-1.1,4.18l1.84,1.73c2.35,2.2,5.89-1.33,3.54-3.54Z" transform="translate(-29.96 -31.19)"/><path class="cls-1" d="M482.59,361.63a103.66,103.66,0,0,1,8.79-10.85c.34-.37.69-.74,1.05-1.09l.61-.55.21-.17c-.11.08-.1.08,0,0s.45-.29.68-.42.54-.23.24-.12c.05,0,.76-.2.34-.14.19,0,.84.08.24-.06.18,0,.61.28.13,0,.06,0,.52.33.24.12s.2.23.25.27c.21.15-.22-.34,0,0,.1.21.12.22,0,0s-.07-.17,0,.05.07.23,0,0,0-.21,0,0l.06-.32q-.11.39.09-.12c-.32.39.37-.34-.06.05a2.52,2.52,0,0,0,0,3.54,2.54,2.54,0,0,0,3.53,0c2.18-2,1.52-5.38-.5-7.19-2.52-2.26-5.92-1.57-8.41.35a40.14,40.14,0,0,0-6.07,6.42q-3.08,3.69-5.83,7.62a2.52,2.52,0,0,0,.89,3.42,2.55,2.55,0,0,0,3.42-.9Z" transform="translate(-29.96 -31.19)"/><path class="cls-1" d="M485.26,371.91c-1.67,3.12-3.42,6.49-3.33,10.13a9.65,9.65,0,0,0,4.43,8.21,2.5,2.5,0,0,0,2.52-4.32l-.35-.22c-.22-.14-.14-.13,0,0l-.58-.56c-.18-.19-.11-.16,0,0-.07-.12-.16-.23-.23-.34s-.26-.49-.39-.73c.11.19.1.28,0,0s-.09-.27-.14-.4-.15-.54-.21-.81,0-.28-.07-.42c0,.22,0,.32,0,0s0-.63,0-.95c0-.14,0-.28,0-.42s0-.43,0-.24,0-.28.06-.33.07-.35.11-.52a15,15,0,0,1,.64-2,4.37,4.37,0,0,1,.27-.64c.15-.32.3-.65.46-1,.35-.68.71-1.36,1.07-2a2.5,2.5,0,0,0-4.32-2.52Z" transform="translate(-29.96 -31.19)"/><path class="cls-1" d="M136.2,320.91a498.44,498.44,0,0,1,4.55-66.3c1.28-9.3,3.22-18.36,8.2-26.44,4.2-6.82,9.94-12.53,16.08-17.61,6.4-5.29,13.33-9.9,20.19-14.57,7.24-4.93,14.19-10.13,21.11-15.49A79.47,79.47,0,0,1,219,172.14a67,67,0,0,1,14-5.06c9.79-2.44,19.95-3.28,30-3.78a275.68,275.68,0,0,1,119,20.63c17.9,7.42,35.54,16.63,48.85,31,11.38,12.31,19.24,27.45,24.59,43.24,5.54,16.33,8.64,33.41,10.56,50.51.48,4.25.81,8.51,1.25,12.76.41,3.89,1,8,3.31,11.33a11.94,11.94,0,0,0,9.7,5.22c3.81.09,7.51-1.31,11.08-2.43,3.29-1,6.73-2.07,10.14-1,3.09.94,4.4-3.89,1.33-4.82-3.93-1.19-8-.42-11.82.73-3.46,1-7.05,2.65-10.73,2.56-8.5-.21-8-12.19-8.61-18.11-1.7-17.59-4.41-35.18-9.5-52.13-4.93-16.43-12.2-32.24-22.93-45.71-12-15.09-28.18-25.4-45.53-33.41A279.79,279.79,0,0,0,273.4,158a238.38,238.38,0,0,0-30.79,2.19c-9.86,1.41-19.68,4-28.4,8.88s-15.88,11.69-23.89,17.36c-6.84,4.83-13.88,9.37-20.64,14.3-13.62,9.92-26.23,21.81-31,38.5-2.94,10.27-3.79,21.29-4.87,31.89q-1.68,16.54-2.28,33.18-.28,8.31-.31,16.63c0,3.22,5,3.22,5,0Z" transform="translate(-29.96 -31.19)"/><path class="cls-1" d="M172,203.36c9.9-6.08,7-19.82,7-29.5a109.05,109.05,0,0,1,6.6-37.37A106.75,106.75,0,0,1,195,117.1c1.69-2.75-2.63-5.26-4.32-2.52a112.9,112.9,0,0,0-14.12,35.24,115.11,115.11,0,0,0-2.45,19c-.25,5.74.32,11.44.27,17.18,0,4.72-.59,10.36-4.92,13-2.74,1.68-.23,6,2.53,4.31Z" transform="translate(-29.96 -31.19)"/><path class="cls-1" d="M242.7,162.86c2.41-17.29,2.69-35.48,9.74-51.74a2.58,2.58,0,0,0-.89-3.42,2.51,2.51,0,0,0-3.42.9c-7.28,16.77-7.77,35.09-10.25,52.93a2.6,2.6,0,0,0,1.75,3.08c1.17.32,2.89-.4,3.07-1.75Z" transform="translate(-29.96 -31.19)"/><path class="cls-1" d="M305.6,159.05a316.62,316.62,0,0,0,.93-48.69c-.19-3.19-5.19-3.22-5,0a316.62,316.62,0,0,1-.93,48.69,2.51,2.51,0,0,0,2.5,2.5,2.55,2.55,0,0,0,2.5-2.5Z" transform="translate(-29.96 -31.19)"/><path class="cls-1" d="M342.41,164.29a214.07,214.07,0,0,0-4.75-48.68c-.67-3.15-5.49-1.82-4.82,1.32a208.79,208.79,0,0,1,4.57,47.36c-.06,3.22,4.94,3.22,5,0Z" transform="translate(-29.96 -31.19)"/><path class="cls-1" d="M385.8,174.69c-1-4-.39-8.14-.21-12.2a63.37,63.37,0,0,0-1-13c-1.42-8.71-3-17.39-4.52-26.09a2.51,2.51,0,0,0-3.07-1.74,2.56,2.56,0,0,0-1.75,3.07c1.51,8.7,3.1,17.38,4.52,26.09a58.73,58.73,0,0,1,.83,12.63c-.24,4.24-.66,8.45.43,12.61.81,3.11,5.64,1.79,4.82-1.33Z" transform="translate(-29.96 -31.19)"/><path class="cls-1" d="M418,194.82a547.75,547.75,0,0,0-5.48-58.46,2.53,2.53,0,0,0-3.08-1.75,2.57,2.57,0,0,0-1.74,3.08,536,536,0,0,1,5.3,57.13c.13,3.2,5.13,3.22,5,0Z" transform="translate(-29.96 -31.19)"/><path class="cls-1" d="M385.33,179.23v-6.49a2.5,2.5,0,1,0-5,0v6.49a2.5,2.5,0,0,0,5,0Z" transform="translate(-29.96 -31.19)"/><path class="cls-1" d="M459.36,243.5a249.34,249.34,0,0,0-9.64-82.3q-3.32-11.35-7.72-22.35a2.58,2.58,0,0,0-3.07-1.75,2.52,2.52,0,0,0-1.75,3.08,245,245,0,0,1,17.27,80.13q.51,11.59-.09,23.19c-.17,3.21,4.83,3.2,5,0Z" transform="translate(-29.96 -31.19)"/><path class="cls-2" d="M101.47,451.93a12.54,12.54,0,0,0,8.44,12.14c3,1,6.31.41,8.24-2.25a26.28,26.28,0,0,0,1.7-3.24,16.12,16.12,0,0,1,2.34-3.39c1.68-1.83,3.9-3.25,5-5.52,1.55-3.07.41-6.05-1.65-8.52a13.21,13.21,0,0,0-3-2.84,8.79,8.79,0,0,0-4.37-1.16,18.44,18.44,0,0,0-8.42,1.83c-5.48,2.56-10.77,8.94-8.6,15.31a2.56,2.56,0,0,0,3.07,1.75A2.52,2.52,0,0,0,106,453c-1.21-3.54,1.76-7,4.6-8.74a13.85,13.85,0,0,1,5.45-2c1.84-.23,3.47-.23,4.8,1.14a11.59,11.59,0,0,1,1.72,2.11,2.76,2.76,0,0,1,.4.83,1.71,1.71,0,0,1-.07.83c-.64,1.57-2.45,2.68-3.64,3.86a20.63,20.63,0,0,0-3.93,5.38c-.7,1.41-1,3.35-2.94,3.16-3.66-.36-6.09-4.29-6-7.61s-4.87-3.21-5,0Z" transform="translate(-29.96 -31.19)"/><path class="cls-2" d="M115.25,462c-.91,6.37.06,13.77,5.18,18.25,4.65,4.07,11.78,5.17,16.81,1.15,2.61-2.08,4.13-5.13,5.38-8.15a22.63,22.63,0,0,0,2.11-10,15,15,0,0,0-4.66-9.58c-2.29-2.33-5.1-4.64-8.38-5.33a11.34,11.34,0,0,0-10.36,3.38c-2.74,2.77-4.1,6.54-5,10.23-.79,3.12,4,4.45,4.83,1.33,1-4,3.11-10.09,8.18-10.19,2.34-.05,4.4,1.46,6.06,3,1.87,1.72,3.66,3.63,4.23,6.17s-.15,5.24-1,7.64a21.26,21.26,0,0,1-3.23,6.39c-2.75,3.41-7.21,3.32-10.66,1-4.37-2.91-5.32-9.12-4.63-13.94a2.59,2.59,0,0,0-1.74-3.08,2.53,2.53,0,0,0-3.08,1.75Z" transform="translate(-29.96 -31.19)"/><path class="cls-2" d="M146.23,497.4c-5.14-1.37-6.95-7.5-5.65-12.17,1.36-4.91,5.92-8.58,10.73-9.83a11.15,11.15,0,0,1,7.15.28,8.11,8.11,0,0,1,4.22,5.11,26.11,26.11,0,0,1,1,7.66,7.07,7.07,0,0,1-.72,3.93,13.53,13.53,0,0,1-2.92,3.17c-4.05,3.56-11,6.38-15.24,1.54a2.5,2.5,0,0,0-3.53,3.54c5.14,5.82,13.92,4.62,19.69.52,3-2.14,6.42-5,7.37-8.75a19.72,19.72,0,0,0,.29-5.84,32.66,32.66,0,0,0-.66-5.31,14.6,14.6,0,0,0-5.1-8.68,14,14,0,0,0-10.18-2.48A20.47,20.47,0,0,0,136.43,482c-3.18,7.57-.08,17.94,8.47,20.21,3.12.82,4.44-4,1.33-4.82Z" transform="translate(-29.96 -31.19)"/><path class="cls-2" d="M146.81,505.75a9.24,9.24,0,0,0,5.08,8.76,16.84,16.84,0,0,0,10.56.86,15.27,15.27,0,0,0,8.56-4.94A19.93,19.93,0,0,0,175.08,500c.51-4.23-.72-8.58-4.4-11a2.5,2.5,0,1,0-2.52,4.31c2.56,1.7,2.23,5.47,1.65,8.07-.66,3-1.94,5.95-4.65,7.65-3.75,2.36-13.76,3.57-13.35-3.22a2.5,2.5,0,0,0-5,0Z" transform="translate(-29.96 -31.19)"/><path class="cls-2" d="M436.65,491.08a16.2,16.2,0,0,0-3.25,15.1c1.56,5.07,6.8,10.25,12.5,8,3-1.16,4.92-3.66,6.39-6.37a2.54,2.54,0,0,0-1.49-3.68A7,7,0,0,1,447,501.9a9.37,9.37,0,0,1-1.34-4.69c-.18-2.14-.23-4.44-1.84-6.07a4.89,4.89,0,0,0-2.83-1.4,4.29,4.29,0,0,0-3.4,1.06,2.5,2.5,0,0,0,0,3.53,2.55,2.55,0,0,0,3.53,0,5.71,5.71,0,0,1-.7.35c-.07.05-.32,0,0,0,0,0-.28-.07-.26-.13s.2.36.1.12a5.52,5.52,0,0,1,.3,1.73,22.13,22.13,0,0,0,.86,5.36c1.26,3.8,4.23,6.06,8,7.18L448,505.3c-1.07,2-2.36,4-4.34,4.37.28-.06-.44,0-.46,0s-.8-.1-.43,0a3.38,3.38,0,0,1-1.46-.58,6.79,6.79,0,0,1-2.05-2,10.88,10.88,0,0,1,.94-12.43,2.55,2.55,0,0,0,0-3.53,2.5,2.5,0,0,0-3.53,0Z" transform="translate(-29.96 -31.19)"/><path class="cls-2" d="M446.75,493a14.27,14.27,0,0,1,5.47-11.16,14.9,14.9,0,0,1,5.72-2.61c1.41-.31,4.15-.9,5.13.47,1.57,2.18,2.88,4.6,4.3,6.88,1.23,2,3,4.05,3,6.48a11.78,11.78,0,0,1-5.16,9.23,13.27,13.27,0,0,1-5.78,2.38c-2.52.35-4.94-.4-7.38-1-3.13-.72-4.47,4.1-1.33,4.82,2.93.68,5.84,1.48,8.86,1.13a18,18,0,0,0,7.28-2.48,17.41,17.41,0,0,0,8.42-12.77c.39-3.39-.92-6.1-2.66-8.89s-3.37-5.65-5.21-8.35-4.85-3.48-8.14-3.16a19.69,19.69,0,0,0-8.07,2.55A19.31,19.31,0,0,0,441.75,493c0,3.22,5,3.23,5,0Z" transform="translate(-29.96 -31.19)"/><path class="cls-2" d="M469.45,474c.08-3.33.39-7.64,3.16-10a8.1,8.1,0,0,1,5.43-1.49,25.61,25.61,0,0,1,6.76.83c2.08.62,3.59,2.37,5,3.9s3,3.23,2.84,5.56a22.24,22.24,0,0,1-1.81,6.73,11,11,0,0,1-3.53,4.77,22.63,22.63,0,0,1-7,3.16c-2.43.67-4.46-1.24-6.78-1.7a2.57,2.57,0,0,0-3.07,1.74,2.52,2.52,0,0,0,1.75,3.08,19.85,19.85,0,0,1,3.6,1.36,8.72,8.72,0,0,0,4.79.57,19.77,19.77,0,0,0,4-1.31,30.35,30.35,0,0,0,4.37-2c5.06-3,7.38-8.7,8.4-14.28a11.37,11.37,0,0,0,0-5.06A11.86,11.86,0,0,0,495,465.6a24.48,24.48,0,0,0-6.38-6c-2.56-1.49-5.63-1.72-8.52-2a16.34,16.34,0,0,0-8.74,1.26c-5.53,2.75-6.76,9.51-6.9,15.08-.07,3.22,4.93,3.22,5,0Z" transform="translate(-29.96 -31.19)"/><path class="cls-2" d="M487.51,456c-.24-2.9,1.82-5.12,4.23-6.45a7.65,7.65,0,0,1,4.67-1.12,15.53,15.53,0,0,1,5,2.07,11.05,11.05,0,0,1,5.73,7,9.72,9.72,0,0,1-1.64,8.2,10.56,10.56,0,0,1-3.55,3c-1.14.59-3.26,1.46-4.51.84-2.87-1.44-5.4,2.88-2.52,4.32,4.26,2.12,9.6-.2,12.84-3.21a14.56,14.56,0,0,0,4.61-11.9,15.53,15.53,0,0,0-7-11.62,26,26,0,0,0-6.49-3.15,11.33,11.33,0,0,0-7.84.5c-4.62,1.9-8.92,6.26-8.48,11.6a2.56,2.56,0,0,0,2.5,2.5,2.51,2.51,0,0,0,2.5-2.5Z" transform="translate(-29.96 -31.19)"/><path class="cls-2" d="M504.66,446.35a7,7,0,0,1,6.79-3.91,7.36,7.36,0,0,1,6.1,5.13c1.09,3,1.87,7-.21,9.79a4.92,4.92,0,0,1-2.78,1.9c-.48.11-1.13,0-1.74.1a3.49,3.49,0,0,0-3,1.79c-1.46,2.86,2.85,5.4,4.32,2.53l-.54.32c-.61.25-.74.36-.39.32a1.66,1.66,0,0,0,.59,0,10.38,10.38,0,0,0,1.11-.09,8.94,8.94,0,0,0,2.57-.76,9.86,9.86,0,0,0,3.75-3.09c2.32-3,2.65-6.85,2.06-10.51-.56-3.43-2-7.17-4.67-9.48a11.82,11.82,0,0,0-18.32,3.43c-1.48,2.85,2.84,5.38,4.32,2.52Z" transform="translate(-29.96 -31.19)"/><path class="cls-2" d="M267.94,343c-.22,6.81-6.43,11.77-9,17.69a10.59,10.59,0,0,0-1.17,5.05,6.57,6.57,0,0,0,2.86,4.78,20.11,20.11,0,0,0,9.93,3.68,2.5,2.5,0,0,0,0-5,15.24,15.24,0,0,1-4-1,9.07,9.07,0,0,1-3.47-2.1c-.65-.8-.15-2,.2-2.83a23.73,23.73,0,0,1,2.1-3.87c3.3-5.16,7.4-9.93,7.61-16.36.11-3.22-4.89-3.22-5,0Z" transform="translate(-29.96 -31.19)"/><path class="cls-2" d="M279.75,363.28a.62.62,0,0,1-.07-.23l.09.66a1.37,1.37,0,0,1,0-.35l-.09.66a.86.86,0,0,1,.06-.23c-.19.4-.22.48-.09.25s-.41.5,0,0c.19-.17.13-.13-.2.13a1.64,1.64,0,0,1,.22-.14,2.71,2.71,0,0,1,.37-.21c.21-.11.61-.18-.11,0,.16,0,.31-.11.46-.15a6.08,6.08,0,0,1,.94-.21l-.66.09a6.83,6.83,0,0,1,1.69,0l-.66-.09a7.48,7.48,0,0,1,.94.2c.16,0,.31.1.46.15.33.11-.22-.11-.26-.12a1.43,1.43,0,0,1,.28.13,8.54,8.54,0,0,1,.82.5c.25.16-.43-.36-.22-.17l.19.16.38.38a2.53,2.53,0,0,0,3.54,0,2.55,2.55,0,0,0,0-3.53,8.61,8.61,0,0,0-6.86-2.64,8.4,8.4,0,0,0-3.83,1.17c-1.59,1-2.93,3-2.22,4.9a2.71,2.71,0,0,0,1.14,1.5,2.6,2.6,0,0,0,1.93.25,2.54,2.54,0,0,0,1.75-3.08Z" transform="translate(-29.96 -31.19)"/><path class="cls-2" d="M302.63,367.06c.73-.39,1.47-.78,2.23-1.13l-.14.06.31-.12a6.45,6.45,0,0,1,.62-.21,10.56,10.56,0,0,1,1.11-.27l-.24,0,.28,0,.44,0,.57,0c.27,0,.19,0-.24,0l.28.06.41.1.27.09-.21-.09a4,4,0,0,0,.5.27l.23.16q-.48-.37-.18-.12a2.5,2.5,0,0,0,3.54-3.54,7.77,7.77,0,0,0-6-1.86,17.6,17.6,0,0,0-6.27,2.31,2.52,2.52,0,0,0-.89,3.42,2.55,2.55,0,0,0,3.42.89Z" transform="translate(-29.96 -31.19)"/><path class="cls-2" d="M177.59,293.49C185,283,198.84,279,211.09,278.35a46.59,46.59,0,0,1,19.61,2.94,45.89,45.89,0,0,1,14.87,9.52,44.11,44.11,0,0,1,11.15,16.72,2.58,2.58,0,0,0,3.08,1.74,2.52,2.52,0,0,0,1.75-3.07,50.79,50.79,0,0,0-26.75-28.57,49.7,49.7,0,0,0-20.8-4.37,64.36,64.36,0,0,0-22,3.87c-7.44,2.81-14.09,7.27-18.7,13.84a2.52,2.52,0,0,0,.9,3.42,2.55,2.55,0,0,0,3.42-.9Z" transform="translate(-29.96 -31.19)"/><path class="cls-2" d="M172.21,294.68c1.13,2.64,3.41,4.54,5.79,6.05a78.18,78.18,0,0,0,7.75,4.19,102.91,102.91,0,0,0,17.13,6.56,77.58,77.58,0,0,0,35.54,1.9,94.42,94.42,0,0,0,9.76-2.65,32.7,32.7,0,0,1,10.35-1.94c3.21.07,3.21-4.93,0-5-6.18-.12-11.83,2.39-17.69,3.91A63.18,63.18,0,0,1,224,309.65a84.47,84.47,0,0,1-33-7.77q-4.32-1.94-8.46-4.27c-2.43-1.36-4.88-2.79-6-5.46a2.52,2.52,0,0,0-3.42-.89,2.57,2.57,0,0,0-.9,3.42Z" transform="translate(-29.96 -31.19)"/><path class="cls-2" d="M420.57,290.42c-8.42-12-23.3-16.71-37.34-17.58A50.4,50.4,0,0,0,361.64,276a52.41,52.41,0,0,0-17,10.86,49.78,49.78,0,0,0-12.31,18.8,2.53,2.53,0,0,0,1.75,3.08,2.56,2.56,0,0,0,3.08-1.75c4.14-11.32,13.21-20.46,24.11-25.43,11.92-5.44,26.24-4.8,38.42-.47,6.47,2.31,12.6,6.18,16.6,11.87a2.56,2.56,0,0,0,3.42.89,2.52,2.52,0,0,0,.9-3.42Z" transform="translate(-29.96 -31.19)"/><path class="cls-2" d="M417.31,291.61c-1,2.29-2.9,3.64-5,4.86-2.45,1.44-5,2.75-7.54,4a95.37,95.37,0,0,1-16.2,6c-10.88,2.9-22.46,3.73-33.51,1.26-6.59-1.47-12.89-4.55-19.77-4.41-3.21.07-3.22,5.07,0,5,6.24-.13,12.05,2.76,18,4.14a69.5,69.5,0,0,0,18,1.68,91.91,91.91,0,0,0,34.84-8.77c3-1.37,5.89-2.86,8.71-4.51s5.49-3.65,6.77-6.66a2.58,2.58,0,0,0-.89-3.42,2.52,2.52,0,0,0-3.42.9Z" transform="translate(-29.96 -31.19)"/><ellipse class="cls-3" cx="386.25" cy="115.66" rx="10.43" ry="10.42" transform="translate(183.29 448.67) rotate(-81.26)"/><ellipse class="cls-3" cx="388.7" cy="99.71" rx="10.43" ry="10.42" transform="translate(201.14 437.56) rotate(-81.26)"/><ellipse class="cls-3" cx="396.55" cy="117.25" rx="10.43" ry="10.42" transform="translate(190.46 460.19) rotate(-81.26)"/><ellipse class="cls-3" cx="399" cy="101.29" rx="10.43" ry="10.42" transform="translate(208.31 449.08) rotate(-81.26)"/><polygon class="cls-3" points="366.81 60.02 394.81 64.33 375.31 97.95 366.81 60.02"/><rect class="cls-3" x="409.01" y="110.17" width="21.24" height="21.25" transform="translate(-6.74 -93.54) rotate(8.74)"/><polygon class="cls-3" points="398.32 80.15 383.75 78.24 393.02 64.05 398.32 80.15"/></svg>